<svg width="1022" height="1020" viewBox="0 0 1022 1020" fill="none" xmlns="http://www.w3.org/2000/svg">
<g clip-path="url(#clip0_1_5)">
<path d="M604.88 951.5H417.98C414.01 951.5 410.73 948.4 410.5 944.43L407.71 894.87C407.63 893.5 407.6 892.32 407.58 891.41C407.58 891.22 407.57 891.04 407.55 890.85C398.71 797.2 377.82 737.14 339.91 696.3C298.24 651.4 231.01 625.1 128.41 613.55C128.22 613.53 128.04 613.52 127.85 613.51C126.65 613.47 125.45 613.41 124.24 613.33L75.22 610.07C71.29 609.81 68.23 606.54 68.23 602.6V415.74C68.23 411.77 71.33 408.49 75.29 408.26L124.81 405.43C126.2 405.35 127.39 405.32 128.31 405.3C128.5 405.3 128.68 405.29 128.86 405.27C222.53 396.43 282.58 375.55 323.42 337.63C368.32 295.95 394.63 228.72 406.17 126.1C406.19 125.92 406.2 125.73 406.21 125.54C406.25 124.35 406.31 123.16 406.39 121.96L409.65 72.9402C409.91 69.0102 413.18 65.9502 417.12 65.9502H604.01C607.98 65.9502 611.26 69.0502 611.49 73.0202L614.29 122.57C614.37 123.93 614.4 125.11 614.42 126C614.42 126.18 614.43 126.36 614.45 126.55C623.29 220.23 644.17 280.3 682.09 321.15C723.77 366.05 791 392.36 893.62 403.9C893.8 403.92 893.99 403.93 894.17 403.94C895.36 403.99 896.55 404.04 897.75 404.12L946.77 407.38C950.7 407.64 953.76 410.91 953.76 414.85V601.71C953.76 605.68 950.66 608.96 946.7 609.19L897.18 612.01C895.8 612.09 894.62 612.12 893.71 612.14C893.53 612.14 893.35 612.15 893.16 612.17C799.49 621.01 739.42 641.89 698.57 679.81C653.67 721.48 627.37 788.71 615.82 891.31C615.8 891.5 615.79 891.68 615.78 891.87C615.74 893.07 615.68 894.27 615.6 895.47L612.34 944.5C612.08 948.43 608.81 951.49 604.87 951.49L604.88 951.5ZM615.68 892.7C615.68 892.7 615.68 892.66 615.68 892.64C615.68 892.66 615.68 892.68 615.68 892.7ZM261.76 503.11C254.55 505.18 254.57 515.36 261.76 517.49C277.85 522.24 293.08 527.58 307.55 533.52C356.45 553.6 395.8 580.14 427.86 614.68C458.51 647.7 481.46 686.97 498.02 734.74C500.63 742.26 503.08 750 505.37 757.98C507.44 765.19 517.62 765.17 519.75 757.98C524.5 741.89 529.84 726.66 535.78 712.19C555.86 663.29 582.4 623.94 616.94 591.88C649.96 561.23 689.23 538.28 737 521.72C744.52 519.11 752.26 516.66 760.25 514.37C767.46 512.3 767.44 502.12 760.25 499.99C744.16 495.24 728.93 489.9 714.45 483.96C665.55 463.89 626.2 437.34 594.14 402.8C563.49 369.78 540.54 330.51 523.98 282.74C521.37 275.22 518.92 267.48 516.63 259.49C514.56 252.28 504.38 252.3 502.25 259.49C497.5 275.58 492.16 290.81 486.22 305.28C466.15 354.18 439.6 393.53 405.06 425.59C372.04 456.24 332.77 479.19 285 495.75C277.48 498.36 269.74 500.81 261.76 503.1V503.11Z" fill="#232323"/>
<path d="M908.86 254.89C917.8 174.25 953.58 149.28 1020.44 143.08C1020.44 143.08 1020.45 143.08 1020.46 143.08C1021.32 143 1021.99 142.32 1021.99 141.46V115.04C1021.99 114.19 1021.34 113.49 1020.49 113.43C1020.39 113.43 1020.28 113.41 1020.18 113.4C939.54 104.46 914.57 68.6796 908.37 1.81955C908.37 1.81955 908.37 1.80953 908.37 1.79953C908.29 0.93953 907.61 0.269531 906.75 0.269531H880.33C879.48 0.269531 878.78 0.919531 878.72 1.76953C878.72 1.86953 878.7 1.97953 878.69 2.07953C869.75 82.7195 833.97 107.69 767.11 113.89C767.11 113.89 767.1 113.89 767.09 113.89C766.23 113.97 765.56 114.65 765.56 115.51V141.93C765.56 142.78 766.21 143.48 767.06 143.54C767.16 143.54 767.27 143.56 767.37 143.57C848.01 152.51 872.98 188.29 879.18 255.15C879.18 255.15 879.18 255.16 879.18 255.17C879.26 256.03 879.94 256.7 880.8 256.7H907.22C908.07 256.7 908.77 256.05 908.83 255.2C908.83 255.1 908.85 254.99 908.86 254.89Z" fill="#232323"/>
<path d="M143.32 1017.9C152.26 937.26 188.04 912.29 254.9 906.09C254.9 906.09 254.91 906.09 254.92 906.09C255.78 906.01 256.45 905.33 256.45 904.47V878.05C256.45 877.2 255.8 876.5 254.95 876.44C254.85 876.44 254.74 876.42 254.64 876.41C174 867.47 149.03 831.69 142.83 764.83C142.83 764.83 142.83 764.82 142.83 764.81C142.75 763.95 142.07 763.28 141.21 763.28H114.79C113.94 763.28 113.24 763.93 113.18 764.78C113.18 764.88 113.16 764.99 113.15 765.09C104.21 845.73 68.43 870.7 1.57004 876.9C1.57004 876.9 1.56002 876.9 1.55002 876.9C0.690018 876.98 0.0200195 877.66 0.0200195 878.52V904.94C0.0200195 905.79 0.67002 906.49 1.52002 906.55C1.62002 906.55 1.73002 906.57 1.83002 906.58C82.47 915.52 107.44 951.3 113.64 1018.16C113.64 1018.16 113.64 1018.17 113.64 1018.18C113.72 1019.04 114.4 1019.71 115.26 1019.71H141.68C142.53 1019.71 143.23 1019.06 143.29 1018.21C143.29 1018.11 143.31 1018 143.32 1017.9Z" fill="#232323"/>
</g>
<defs>
<clipPath id="clip0_1_5">
<rect width="1022" height="1020" fill="white"/>
</clipPath>
</defs>
</svg>
