<?xml version="1.0" encoding="UTF-8"?>
<svg id="Livello_1" data-name="Livello 1" xmlns="http://www.w3.org/2000/svg" viewBox="0 0 2000 2000">
  <defs>
    <style>
      .cls-1 {
        fill: #232323;
      }
    </style>
  </defs>
  <path class="cls-1" d="M1093.88,1441.5h-186.9c-3.97,0-7.25-3.1-7.48-7.07l-2.79-49.56c-.08-1.37-.11-2.55-.13-3.46,0-.19-.01-.37-.03-.56-8.84-93.65-29.73-153.71-67.64-194.55-41.67-44.9-108.9-71.2-211.5-82.75-.19-.02-.37-.03-.56-.04-1.2-.04-2.4-.1-3.61-.18l-49.02-3.26c-3.93-.26-6.99-3.53-6.99-7.47v-186.86c0-3.97,3.1-7.25,7.06-7.48l49.52-2.83c1.39-.08,2.58-.11,3.5-.13.19,0,.37-.01.55-.03,93.67-8.84,153.72-29.72,194.56-67.64,44.9-41.68,71.21-108.91,82.75-211.53.02-.18.03-.37.04-.56.04-1.19.1-2.38.18-3.58l3.26-49.02c.26-3.93,3.53-6.99,7.47-6.99h186.89c3.97,0,7.25,3.1,7.48,7.07l2.8,49.55c.08,1.36.11,2.54.13,3.43,0,.18.01.36.03.55,8.84,93.68,29.72,153.75,67.64,194.6,41.68,44.9,108.91,71.21,211.53,82.75.18.02.37.03.55.04,1.19.05,2.38.1,3.58.18l49.02,3.26c3.93.26,6.99,3.53,6.99,7.47v186.86c0,3.97-3.1,7.25-7.06,7.48l-49.52,2.82c-1.38.08-2.56.11-3.47.13-.18,0-.36.01-.55.03-93.67,8.84-153.74,29.72-194.59,67.64-44.9,41.67-71.2,108.9-82.75,211.5-.02.19-.03.37-.04.56-.04,1.2-.1,2.4-.18,3.6l-3.26,49.03c-.26,3.93-3.53,6.99-7.47,6.99ZM1104.68,1382.7h0s0-.04,0-.06c0,.02,0,.04,0,.06ZM750.76,993.11c-7.21,2.07-7.19,12.25,0,14.38,16.09,4.75,31.32,10.09,45.79,16.03,48.9,20.08,88.25,46.62,120.31,81.16,30.65,33.02,53.6,72.29,70.16,120.06,2.61,7.52,5.06,15.26,7.35,23.24,2.07,7.21,12.25,7.19,14.38,0,4.75-16.09,10.09-31.32,16.03-45.79,20.08-48.9,46.62-88.25,81.16-120.31,33.02-30.65,72.29-53.6,120.06-70.16,7.52-2.61,15.26-5.06,23.25-7.35,7.21-2.07,7.19-12.25,0-14.38-16.09-4.75-31.32-10.09-45.8-16.03-48.9-20.07-88.25-46.62-120.31-81.16-30.65-33.02-53.6-72.29-70.16-120.06-2.61-7.52-5.06-15.26-7.35-23.25-2.07-7.21-12.25-7.19-14.38,0-4.75,16.09-10.09,31.32-16.03,45.79-20.07,48.9-46.62,88.25-81.16,120.31-33.02,30.65-72.29,53.6-120.06,70.16-7.52,2.61-15.26,5.06-23.24,7.35Z"/>
  <path class="cls-1" d="M1397.86,744.89c8.94-80.64,44.72-105.61,111.58-111.81,0,0,.01,0,.02,0,.86-.08,1.53-.76,1.53-1.62v-26.42c0-.85-.65-1.55-1.5-1.61-.1,0-.21-.02-.31-.03-80.64-8.94-105.61-44.72-111.81-111.58,0,0,0-.01,0-.02-.08-.86-.76-1.53-1.62-1.53h-26.42c-.85,0-1.55.65-1.61,1.5,0,.1-.02.21-.03.31-8.94,80.64-44.72,105.61-111.58,111.81,0,0-.01,0-.02,0-.86.08-1.53.76-1.53,1.62v26.42c0,.85.65,1.55,1.5,1.61.1,0,.21.02.31.03,80.64,8.94,105.61,44.72,111.81,111.58,0,0,0,.01,0,.02.08.86.76,1.53,1.62,1.53h26.42c.85,0,1.55-.65,1.61-1.5,0-.1.02-.21.03-.31Z"/>
  <path class="cls-1" d="M632.32,1507.9c8.94-80.64,44.72-105.61,111.58-111.81,0,0,.01,0,.02,0,.86-.08,1.53-.76,1.53-1.62v-26.42c0-.85-.65-1.55-1.5-1.61-.1,0-.21-.02-.31-.03-80.64-8.94-105.61-44.72-111.81-111.58,0,0,0-.01,0-.02-.08-.86-.76-1.53-1.62-1.53h-26.42c-.85,0-1.55.65-1.61,1.5,0,.1-.02.21-.03.31-8.94,80.64-44.72,105.61-111.58,111.81,0,0-.01,0-.02,0-.86.08-1.53.76-1.53,1.62v26.42c0,.85.65,1.55,1.5,1.61.1,0,.21.02.31.03,80.64,8.94,105.61,44.72,111.81,111.58,0,0,0,.01,0,.02.08.86.76,1.53,1.62,1.53h26.42c.85,0,1.55-.65,1.61-1.5,0-.1.02-.21.03-.31Z"/>
</svg>