<svg width="832" height="882" viewBox="0 0 832 882" fill="none" xmlns="http://www.w3.org/2000/svg">
<g clip-path="url(#clip0_1_9)">
<path d="M805.23 439.71C800.82 433.07 795.76 426.88 790.13 421.25L719.3 350.37V282.24C719.3 259.41 715.75 235.8 708.74 212.07C702.61 191.32 693.97 170.89 683.07 151.34C672.16 131.77 659.3 113.68 644.86 97.5599C628.31 79.0999 610.04 63.6599 590.57 51.6699C563.1 34.7599 534.21 21.8199 504.69 13.2099C475.52 4.6899 445.68 0.379883 416 0.379883C375.1 0.379883 335.37 8.40989 297.9 24.2599C261.77 39.5399 229.34 61.3999 201.53 89.2099C173.71 117.03 151.86 149.45 136.58 185.59C120.73 223.06 112.69 262.79 112.69 303.68V350.37L41.87 421.25C36.23 426.88 31.17 433.07 26.77 439.71C-5.87995 488.91 -8.82994 551.8 19.0901 603.83C47.0101 655.86 101.03 688.19 160.08 688.19H225.79C225.74 689.23 225.71 690.28 225.71 691.33C225.71 796.25 311.07 881.62 416 881.62C520.93 881.62 606.28 796.25 606.28 691.33C606.28 690.28 606.25 689.23 606.2 688.19H671.91C730.96 688.19 784.99 655.86 812.9 603.83C840.82 551.8 837.88 488.91 805.23 439.71ZM486.28 691.33C486.28 730.09 454.75 761.62 416 761.62C377.25 761.62 345.71 730.09 345.71 691.33C345.71 690.28 345.68 689.23 345.63 688.19H486.36C486.31 689.23 486.28 690.28 486.28 691.33ZM671.91 568.19H160.08C128.17 568.19 109.11 532.66 126.75 506.07L202.74 430.02C221.69 411.06 232.59 385.43 232.69 358.63V303.68C232.69 202.44 314.76 120.38 416 120.38C451.75 120.38 489.9 130.62 527.66 153.86C567.09 178.13 599.3 235.94 599.3 282.24V358.63C599.4 385.43 610.31 411.06 629.25 430.02L705.24 506.07C722.89 532.66 703.82 568.19 671.91 568.19Z" fill="#232323"/>
</g>
<defs>
<clipPath id="clip0_1_9">
<rect width="832" height="882" fill="white"/>
</clipPath>
</defs>
</svg>
