<?xml version="1.0" encoding="UTF-8"?>
<svg id="Livello_1" data-name="Livello 1" xmlns="http://www.w3.org/2000/svg" viewBox="0 0 2000 2000">
  <defs>
    <style>
      .cls-1 {
        fill: #232323;
      }
    </style>
  </defs>
  <path class="cls-1" d="M1389.23,968.71c-4.41-6.64-9.47-12.83-15.1-18.46l-70.83-70.88v-68.13c0-22.83-3.55-46.44-10.56-70.17-6.13-20.75-14.77-41.18-25.67-60.73-10.91-19.57-23.77-37.66-38.21-53.78-16.55-18.46-34.82-33.9-54.29-45.89-27.47-16.91-56.36-29.85-85.88-38.46-29.17-8.52-59.01-12.83-88.69-12.83-40.9,0-80.63,8.03-118.1,23.88-36.13,15.28-68.56,37.14-96.37,64.95-27.82,27.82-49.67,60.24-64.95,96.38-15.85,37.47-23.89,77.2-23.89,118.09v46.69l-70.82,70.88c-5.64,5.63-10.7,11.82-15.1,18.46-32.65,49.2-35.6,112.09-7.68,164.12,27.92,52.03,81.94,84.36,140.99,84.36h65.71c-.05,1.04-.08,2.09-.08,3.14,0,104.92,85.36,190.29,190.29,190.29s190.28-85.37,190.28-190.29c0-1.05-.03-2.1-.08-3.14h65.71c59.05,0,113.08-32.33,140.99-84.36,27.92-52.03,24.98-114.92-7.67-164.12ZM1070.28,1220.33c0,38.76-31.53,70.29-70.28,70.29s-70.29-31.53-70.29-70.29c0-1.05-.03-2.1-.08-3.14h140.73c-.05,1.04-.08,2.09-.08,3.14ZM1255.91,1097.19h-511.83c-31.91,0-50.97-35.53-33.33-62.12l75.99-76.05c18.95-18.96,29.85-44.59,29.95-71.39v-54.95c0-101.24,82.07-183.3,183.31-183.3,35.75,0,73.9,10.24,111.66,33.48,39.43,24.27,71.64,82.08,71.64,128.38v76.39c.1,26.8,11.01,52.43,29.95,71.39l75.99,76.05c17.65,26.59-1.42,62.12-33.33,62.12Z"/>
</svg>