<?xml version="1.0" encoding="UTF-8"?>
<svg id="Livello_1" data-name="Livello 1" xmlns="http://www.w3.org/2000/svg" viewBox="0 0 2000 2000">
  <defs>
    <style>
      .cls-1 {
        fill: #232323;
      }

      .cls-2 {
        fill: #f39200;
      }
    </style>
  </defs>
  <path class="cls-1" d="M1389.23,968.71c-4.41-6.64-9.47-12.83-15.1-18.46l-70.83-70.88v-10.99c-14.53,3.96-29.54,5.96-44.84,5.96-22.98,0-45.29-4.51-66.3-13.4-3-1.27-5.96-2.62-8.86-4.05v30.74c.1,26.8,11.01,52.43,29.95,71.39l75.99,76.05c17.65,26.59-1.41,62.12-33.33,62.12h-511.83c-31.91,0-50.97-35.53-33.33-62.12l75.99-76.05c18.95-18.96,29.85-44.59,29.95-71.39v-54.95c0-101.24,82.07-183.3,183.31-183.3,29.31,0,60.22,6.88,91.22,22.17,2.23-11.57,5.67-22.88,10.31-33.84,8.58-20.29,20.86-38.5,36.49-54.13,5.19-5.19,10.67-10.01,16.41-14.45-21.32-11.37-43.35-20.39-65.73-26.92-29.18-8.52-59.02-12.83-88.7-12.83-40.9,0-80.63,8.03-118.1,23.88-36.13,15.28-68.56,37.14-96.37,64.95-27.82,27.82-49.67,60.24-64.95,96.38-15.85,37.47-23.89,77.2-23.89,118.09v46.69l-70.82,70.88c-5.64,5.63-10.69,11.82-15.1,18.46-32.65,49.2-35.6,112.09-7.68,164.12,27.92,52.03,81.94,84.36,140.99,84.36h65.71c-.05,1.04-.08,2.09-.08,3.14,0,104.92,85.36,190.29,190.29,190.29s190.28-85.37,190.28-190.29c0-1.05-.03-2.1-.08-3.14h65.71c59.05,0,113.08-32.33,141-84.36,27.91-52.03,24.97-114.92-7.68-164.12ZM1070.28,1220.33c0,38.76-31.53,70.29-70.28,70.29s-70.29-31.53-70.29-70.29c0-1.05-.03-2.1-.08-3.14h140.73c-.05,1.04-.08,2.09-.08,3.14Z"/>
  <path class="cls-2" d="M1258.46,563.69c-27.92,0-53.93,8.16-75.79,22.21-34.54,22.21-58.7,59.15-63.61,101.95-.61,5.3-.92,10.69-.92,16.16,0,49.85,25.99,93.63,65.16,118.52,21.72,13.81,47.51,21.81,75.16,21.81,15.68,0,30.76-2.57,44.84-7.31,55.51-18.71,95.49-71.2,95.49-133.02,0-77.5-62.83-140.32-140.33-140.32Z"/>
</svg>