<svg width="832" height="882" viewBox="0 0 832 882" fill="none" xmlns="http://www.w3.org/2000/svg">
<g clip-path="url(#clip0_1_81)">
<path d="M805.23 439.71C800.82 433.07 795.76 426.88 790.13 421.25L719.3 350.37V339.38C704.77 343.34 689.76 345.34 674.46 345.34C651.48 345.34 629.17 340.83 608.16 331.94C605.16 330.67 602.2 329.32 599.3 327.89V358.63C599.4 385.43 610.31 411.06 629.25 430.02L705.24 506.07C722.89 532.66 703.83 568.19 671.91 568.19H160.08C128.17 568.19 109.11 532.66 126.75 506.07L202.74 430.02C221.69 411.06 232.59 385.43 232.69 358.63V303.68C232.69 202.44 314.76 120.38 416 120.38C445.31 120.38 476.22 127.26 507.22 142.55C509.45 130.98 512.89 119.67 517.53 108.71C526.11 88.42 538.39 70.21 554.02 54.58C559.21 49.39 564.69 44.57 570.43 40.13C549.11 28.76 527.08 19.74 504.7 13.21C475.52 4.69002 445.68 0.380005 416 0.380005C375.1 0.380005 335.37 8.41001 297.9 24.26C261.77 39.54 229.34 61.4 201.53 89.21C173.71 117.03 151.86 149.45 136.58 185.59C120.73 223.06 112.69 262.79 112.69 303.68V350.37L41.87 421.25C36.23 426.88 31.18 433.07 26.77 439.71C-5.87995 488.91 -8.82994 551.8 19.0901 603.83C47.0101 655.86 101.03 688.19 160.08 688.19H225.79C225.74 689.23 225.71 690.28 225.71 691.33C225.71 796.25 311.07 881.62 416 881.62C520.93 881.62 606.28 796.25 606.28 691.33C606.28 690.28 606.25 689.23 606.2 688.19H671.91C730.96 688.19 784.99 655.86 812.91 603.83C840.82 551.8 837.88 488.91 805.23 439.71ZM486.28 691.33C486.28 730.09 454.75 761.62 416 761.62C377.25 761.62 345.71 730.09 345.71 691.33C345.71 690.28 345.68 689.23 345.63 688.19H486.36C486.31 689.23 486.28 690.28 486.28 691.33Z" fill="#232323"/>
<path d="M674.46 34.6899C646.54 34.6899 620.53 42.85 598.67 56.9C564.13 79.11 539.97 116.05 535.06 158.85C534.45 164.15 534.14 169.54 534.14 175.01C534.14 224.86 560.13 268.64 599.3 293.53C621.02 307.34 646.81 315.34 674.46 315.34C690.14 315.34 705.22 312.77 719.3 308.03C774.81 289.32 814.79 236.83 814.79 175.01C814.79 97.5099 751.96 34.6899 674.46 34.6899Z" fill="#F39200"/>
</g>
<defs>
<clipPath id="clip0_1_81">
<rect width="832" height="882" fill="white"/>
</clipPath>
</defs>
</svg>
