<?xml version="1.0" encoding="UTF-8"?>
<svg id="Livello_1" data-name="Livello 1" xmlns="http://www.w3.org/2000/svg" viewBox="0 0 2000 2000">
  <defs>
    <style>
      .cls-1 {
        fill: #232323;
      }
    </style>
  </defs>
  <path class="cls-1" d="M1568.94,789.77c4.42-44.3,4.42-89.19-.02-133.42-8.56-85.76-77.02-154.2-162.75-162.77-21.61-2.16-43.39-3.24-65.17-3.29h-173.78c-21.78.05-43.55,1.12-65.16,3.28-85.74,8.57-154.2,77.03-162.78,162.78-4.42,44.3-4.42,89.19.02,133.42,8.56,85.76,77.02,154.2,162.75,162.77,21.61,2.16,43.39,3.24,65.17,3.29h76.24c6.99,0,12.66-5.67,12.66-12.66v-73.49c0-6.99-5.67-12.66-12.66-12.66h-76.24c-18.49-.05-36.98-.96-55.33-2.8-19.56-1.96-37.15-10.75-50.33-23.93-13.19-13.19-21.99-30.79-23.94-50.36-3.78-37.72-3.78-76-.01-113.76,3.92-39.12,35.16-70.36,74.28-74.28,18.36-1.83,36.85-2.74,55.33-2.79h173.78c18.49.05,36.98.96,55.33,2.8,19.56,1.96,37.15,10.75,50.33,23.93,13.19,13.19,21.99,30.79,23.94,50.36,3.78,37.72,3.78,76,.01,113.76-3.92,39.12-35.16,70.36-74.28,74.28-13.18,1.31-26.42,2.15-39.68,2.54-8.72.25-15.65,7.4-15.65,16.12v72.1c0,6.88,3,13.41,8.2,17.9l103.03,88.79c4.62,3.98,11.37,4.27,16.31.71l46.45-33.48c6.37-4.59,7.34-13.7,2.08-19.52l-46.03-51c-4.11-4.55-3.23-11.68,1.86-15.1l14.02-9.42c45.01-29.36,76.4-77.97,82.02-134.12Z"/>
  <path class="cls-1" d="M430.36,1244.6c-4.42-44.3-4.42-89.19.02-133.42,8.56-85.76,77.02-154.2,162.75-162.77,21.61-2.16,43.39-3.24,65.17-3.29h219.28c21.78.05,43.55,1.12,65.16,3.28,85.74,8.57,154.2,77.03,162.78,162.78,4.42,44.3,4.42,89.19-.02,133.42-8.56,85.76-77.02,154.2-162.75,162.77-21.61,2.16-43.39,3.24-65.17,3.29h-121.75c-6.99,0-12.66-5.67-12.66-12.66v-73.49c0-6.99,5.67-12.66,12.66-12.66h121.75c18.49-.05,36.98-.96,55.33-2.8,19.56-1.96,37.15-10.75,50.33-23.93,13.19-13.19,21.99-30.79,23.94-50.36,3.78-37.72,3.78-76,.01-113.76-3.92-39.12-35.16-70.36-74.28-74.28-18.36-1.83-36.85-2.74-55.33-2.79h-219.28c-18.49.05-36.98.96-55.33,2.8-19.56,1.96-37.15,10.75-50.33,23.93-13.19,13.19-21.99,30.79-23.94,50.36-3.78,37.72-3.78,76-.01,113.76,3.92,39.12,35.16,70.36,74.28,74.28,13.18,1.31,26.42,2.15,39.68,2.54,8.72.25,15.65,7.4,15.65,16.12v72.1c0,6.88-3,13.41-8.2,17.9l-103.03,88.79c-4.62,3.98-11.37,4.27-16.31.71l-46.45-33.48c-6.37-4.59-7.34-13.7-2.08-19.52l46.03-51c4.11-4.55,3.23-11.68-1.86-15.1l-14.02-9.42c-45.01-29.36-76.4-77.97-82.02-134.12Z"/>
</svg>