<svg width="1146" height="1020" viewBox="0 0 1146 1020" fill="none" xmlns="http://www.w3.org/2000/svg">
<g clip-path="url(#clip0_1_14)">
<path d="M1141.94 299.77C1146.36 255.47 1146.36 210.58 1141.92 166.35C1133.36 80.59 1064.9 12.15 979.17 3.58002C957.56 1.42002 935.78 0.340039 914 0.290039H740.22C718.44 0.340039 696.67 1.41004 675.06 3.57004C589.32 12.14 520.86 80.6 512.28 166.35C507.86 210.65 507.86 255.54 512.3 299.77C520.86 385.53 589.32 453.97 675.05 462.54C696.66 464.7 718.44 465.78 740.22 465.83H816.46C823.45 465.83 829.12 460.16 829.12 453.17V379.68C829.12 372.69 823.45 367.02 816.46 367.02H740.22C721.73 366.97 703.24 366.06 684.89 364.22C665.33 362.26 647.74 353.47 634.56 340.29C621.37 327.1 612.57 309.5 610.62 289.93C606.84 252.21 606.84 213.93 610.61 176.17C614.53 137.05 645.77 105.81 684.89 101.89C703.25 100.06 721.74 99.15 740.22 99.1H914C932.49 99.15 950.98 100.06 969.33 101.9C988.89 103.86 1006.48 112.65 1019.66 125.83C1032.85 139.02 1041.65 156.62 1043.6 176.19C1047.38 213.91 1047.38 252.19 1043.61 289.95C1039.69 329.07 1008.45 360.31 969.33 364.23C956.15 365.54 942.91 366.38 929.65 366.77C920.93 367.02 914 374.17 914 382.89V454.99C914 461.87 917 468.4 922.2 472.89L1025.23 561.68C1029.85 565.66 1036.6 565.95 1041.54 562.39L1087.99 528.91C1094.36 524.32 1095.33 515.21 1090.07 509.39L1044.04 458.39C1039.93 453.84 1040.81 446.71 1045.9 443.29L1059.92 433.87C1104.93 404.51 1136.32 355.9 1141.94 299.75V299.77Z" fill="#232323"/>
<path d="M3.36035 754.6C-1.05965 710.3 -1.05963 665.41 3.38037 621.18C11.9404 535.42 80.4004 466.98 166.13 458.41C187.74 456.25 209.52 455.17 231.3 455.12H450.58C472.36 455.17 494.13 456.24 515.74 458.4C601.48 466.97 669.94 535.43 678.52 621.18C682.94 665.48 682.94 710.37 678.5 754.6C669.94 840.36 601.48 908.8 515.75 917.37C494.14 919.53 472.36 920.61 450.58 920.66H328.83C321.84 920.66 316.17 914.99 316.17 908V834.51C316.17 827.52 321.84 821.85 328.83 821.85H450.58C469.07 821.8 487.56 820.89 505.91 819.05C525.47 817.09 543.06 808.3 556.24 795.12C569.43 781.93 578.23 764.33 580.18 744.76C583.96 707.04 583.96 668.76 580.19 631C576.27 591.88 545.03 560.64 505.91 556.72C487.55 554.89 469.06 553.98 450.58 553.93H231.3C212.81 553.98 194.32 554.89 175.97 556.73C156.41 558.69 138.82 567.48 125.64 580.66C112.45 593.85 103.65 611.45 101.7 631.02C97.9204 668.74 97.9204 707.02 101.69 744.78C105.61 783.9 136.85 815.14 175.97 819.06C189.15 820.37 202.39 821.21 215.65 821.6C224.37 821.85 231.3 829 231.3 837.72V909.82C231.3 916.7 228.3 923.23 223.1 927.72L120.07 1016.51C115.45 1020.49 108.7 1020.78 103.76 1017.22L57.3104 983.74C50.9404 979.15 49.9704 970.04 55.2304 964.22L101.26 913.22C105.37 908.67 104.49 901.54 99.4004 898.12L85.3804 888.7C40.3704 859.34 8.98035 810.73 3.36035 754.58V754.6Z" fill="#232323"/>
</g>
<defs>
<clipPath id="clip0_1_14">
<rect width="1146" height="1020" fill="white"/>
</clipPath>
</defs>
</svg>
