<?xml version="1.0" encoding="UTF-8"?>
<svg id="Livello_1" data-name="Livello 1" xmlns="http://www.w3.org/2000/svg" viewBox="0 0 2000 2000">
  <defs>
    <style>
      .cls-1 {
        fill: #232323;
      }
    </style>
  </defs>
  <path class="cls-1" d="M1571.46,1393.39c-5.12-50.31-16.75-110.01-35.32-156.92-77.18-194.85-250.4-315.91-452.08-315.91h-156.33c-7.5,0-11.12-9.19-5.63-14.3l24.08-22.44c48.8-45.45,80.89-85.23,104.04-128.98,7.52-14.2,19.03-44.41,19.03-44.41,12.83-34.47,23.39-74.04,26.6-103.78.97-8.99-6.12-16.81-15.16-16.81h-112.8c-7.35,0-13.67,5.26-14.98,12.49-8.44,46.42-20.77,86.02-37.63,120.88-10.61,21.96-36.73,60.11-36.73,60.11-16.91,21.64-36.5,40.78-59.06,57.75-43.95,33.07-97.99,57.07-165.19,73.37-52.41,12.71-176.03,21.45-215.14,23.97-6.8.44-12.09,6.08-12.09,12.9v97.38c0,6.82,5.29,12.46,12.09,12.9,39.11,2.52,162.73,11.26,215.14,23.97,67.19,16.29,121.22,40.3,165.19,73.38,41.5,31.22,72.96,69.74,96.17,117.77,16.86,34.86,29.2,74.46,37.63,120.88,1.31,7.24,7.63,12.49,14.98,12.49h112.8c9.05,0,16.13-7.83,15.16-16.83-4.74-43.98-25.55-109.44-46-148.1-23.15-43.75-55.23-83.52-104.04-128.98l-23.48-21.88c-5.24-4.92-3.12-15.02,5.18-14.88l156.18-.6c166.52,0,270.49,112.73,312.28,218.22,10.27,25.94,19.12,66.74,23.66,100.41,1.02,7.58,7.51,13.21,15.16,13.18l121.21-.48c9-.04,16.02-7.81,15.11-16.76Z"/>
</svg>