<svg width="1145" height="822" viewBox="0 0 1145 822" fill="none" xmlns="http://www.w3.org/2000/svg">
<g clip-path="url(#clip0_1_17)">
<path d="M1144.46 804.39C1139.34 754.08 1127.71 694.38 1109.14 647.47C1031.96 452.62 858.74 331.56 657.06 331.56H500.73C493.23 331.56 489.61 322.37 495.1 317.26L519.18 294.82C567.98 249.37 600.07 209.59 623.22 165.84C630.74 151.64 642.25 121.43 642.25 121.43C655.08 86.9601 665.64 47.3901 668.85 17.6501C669.82 8.66009 662.73 0.840088 653.69 0.840088H540.89C533.54 0.840088 527.22 6.10008 525.91 13.3301C517.47 59.7501 505.14 99.3501 488.28 134.21C477.67 156.17 451.55 194.32 451.55 194.32C434.64 215.96 415.05 235.1 392.49 252.07C348.54 285.14 294.5 309.14 227.3 325.44C174.89 338.15 51.2703 346.89 12.1603 349.41C5.36031 349.85 0.0703125 355.49 0.0703125 362.31V459.69C0.0703125 466.51 5.36031 472.15 12.1603 472.59C51.2703 475.11 174.89 483.85 227.3 496.56C294.49 512.85 348.52 536.86 392.49 569.94C433.99 601.16 465.45 639.68 488.66 687.71C505.52 722.57 517.86 762.17 526.29 808.59C527.6 815.83 533.92 821.08 541.27 821.08H654.07C663.12 821.08 670.2 813.25 669.23 804.25C664.49 760.27 643.68 694.81 623.23 656.15C600.08 612.4 568 572.63 519.19 527.17L495.71 505.29C490.47 500.37 492.59 490.27 500.89 490.41L657.07 489.81C823.59 489.81 927.56 602.54 969.35 708.03C979.62 733.97 988.47 774.77 993.01 808.44C994.03 816.02 1000.52 821.65 1008.17 821.62L1129.38 821.14C1138.38 821.1 1145.4 813.33 1144.49 804.38L1144.46 804.39Z" fill="#232323"/>
</g>
<defs>
<clipPath id="clip0_1_17">
<rect width="1145" height="822" fill="white"/>
</clipPath>
</defs>
</svg>
