<svg width="470" height="1020" viewBox="0 0 470 1020" fill="none" xmlns="http://www.w3.org/2000/svg">
<g clip-path="url(#clip0_1_19)">
<path d="M469.26 355.43V713.05C373.75 713.05 297.59 706.63 239.49 683.01C233.74 680.12 227.75 677.41 221.5 674.86C134.18 630.78 93.2402 539.25 93.2402 355.43H469.26Z" fill="#232323"/>
<path d="M239.49 683.01C233.28 680.5 227.29 677.78 221.5 674.86C227.75 677.41 233.74 680.12 239.49 683.01Z" fill="#232323"/>
<path d="M367.56 1019.71H9.93994V643.69C101.52 643.69 170.19 653.85 221.5 674.86C227.29 677.78 233.28 680.5 239.49 683.01C346.37 736.59 367.56 846.22 367.56 1019.71Z" fill="#232323"/>
<path d="M239.49 683.01C233.28 680.5 227.29 677.78 221.5 674.86C227.75 677.41 233.74 680.12 239.49 683.01Z" fill="#232323"/>
<path d="M376.76 0.280029C376.76 310.54 260.11 357.9 0.740234 357.9V0.280029H376.76Z" fill="#232323"/>
</g>
<defs>
<clipPath id="clip0_1_19">
<rect width="470" height="1020" fill="white"/>
</clipPath>
</defs>
</svg>
