<?xml version="1.0" encoding="UTF-8"?>
<svg id="Livello_1" data-name="Livello 1" xmlns="http://www.w3.org/2000/svg" viewBox="0 0 2000 2000">
  <defs>
    <style>
      .cls-1 {
        fill: #232323;
      }
    </style>
  </defs>
  <g>
    <path class="cls-1" d="M1234.26,845.43v357.62c-95.51,0-171.67-6.42-229.77-30.04-5.75-2.89-11.74-5.6-17.99-8.15-87.32-44.08-128.26-135.61-128.26-319.43h376.02Z"/>
    <path class="cls-1" d="M1004.49,1173.01c-6.21-2.51-12.2-5.23-17.99-8.15,6.25,2.55,12.24,5.26,17.99,8.15Z"/>
  </g>
  <g>
    <path class="cls-1" d="M1132.56,1509.71h-357.62v-376.02c91.58,0,160.25,10.16,211.56,31.17,5.79,2.92,11.78,5.64,17.99,8.15,106.88,53.58,128.07,163.21,128.07,336.7Z"/>
    <path class="cls-1" d="M1004.49,1173.01c-6.21-2.51-12.2-5.23-17.99-8.15,6.25,2.55,12.24,5.26,17.99,8.15Z"/>
  </g>
  <path class="cls-1" d="M1141.76,490.28c0,310.26-116.65,357.62-376.02,357.62v-357.62h376.02Z"/>
</svg>