<svg width="909" height="850" viewBox="0 0 909 850" fill="none" xmlns="http://www.w3.org/2000/svg">
<g clip-path="url(#clip0_1_34)">
<path d="M767.81 535.04C734.99 535.04 703.06 525.77 675.49 508.24C669.09 504.18 662.98 499.69 657.19 494.83V703.7C657.19 717.49 646.02 728.66 632.23 728.66H145.76C131.97 728.66 120.8 717.49 120.8 703.7V362.72H595.49C595.49 356.07 595.87 349.41 596.62 342.9C599.4 318.6 607.13 295.7 619.59 274.76H120.8V194.3C120.8 178.84 132.95 166.22 148.23 165.47V43.2999H145.76C65.3201 43.2999 0.120117 108.51 0.120117 188.93V703.69C0.120117 784.13 65.3201 849.34 145.77 849.34H632.22C712.67 849.34 777.88 784.13 777.88 703.69V534.74C774.54 534.94 771.18 535.04 767.81 535.04ZM632.23 43.2999H629.77V165.47C645.04 166.22 657.19 178.84 657.19 194.3V230.61C662.76 225.92 668.62 221.6 674.72 217.68C702.5 199.83 734.69 190.39 767.81 190.39C771.18 190.39 774.54 190.49 777.88 190.68V188.93C777.88 108.51 712.67 43.2999 632.23 43.2999Z" fill="#232323"/>
<path d="M557.81 206.69H562.09C580.54 206.69 595.5 191.73 595.5 173.28V34.0599C595.5 33.8699 595.5 33.6799 595.5 33.4899C595.2 15.2999 580.36 0.659912 562.1 0.659912H557.82C539.56 0.659912 524.72 15.2999 524.42 33.4899C524.42 33.6799 524.42 33.8699 524.42 34.0599V173.28C524.42 191.73 539.38 206.69 557.83 206.69H557.81Z" fill="#232323"/>
<path d="M490.79 43.2999H287.21V165.43H490.79V43.2999Z" fill="#232323"/>
<path d="M215.91 206.69H220.19C238.64 206.69 253.6 191.73 253.6 173.28V34.0599C253.6 33.8699 253.6 33.6799 253.6 33.4899C253.3 15.2999 238.461 0.659912 220.201 0.659912H215.92C197.66 0.659912 182.821 15.2999 182.521 33.4899C182.521 33.6799 182.521 33.8699 182.521 34.0599V173.28C182.521 191.73 197.48 206.69 215.93 206.69H215.91Z" fill="#232323"/>
<path d="M777.88 222.75C774.55 222.51 771.2 222.39 767.81 222.39C739.89 222.39 713.88 230.55 692.02 244.6C657.48 266.81 633.32 303.75 628.41 346.55C627.8 351.85 627.49 357.24 627.49 362.71C627.49 395.28 638.58 425.24 657.19 449.05C667.06 461.7 679.07 472.6 692.65 481.23C714.37 495.04 740.16 503.04 767.81 503.04C771.2 503.04 774.56 502.92 777.88 502.68C789.96 501.83 801.61 499.45 812.65 495.73C868.16 477.02 908.14 424.53 908.14 362.71C908.14 288.6 850.68 227.91 777.88 222.75Z" fill="#F39200"/>
</g>
<defs>
<clipPath id="clip0_1_34">
<rect width="909" height="850" fill="white"/>
</clipPath>
</defs>
</svg>
