<svg width="1016" height="1049" viewBox="0 0 1016 1049" fill="none" xmlns="http://www.w3.org/2000/svg">
<g clip-path="url(#clip0_1_97)">
<path d="M632.24 242.3H629.77V364.47C645.05 365.22 657.2 377.84 657.2 393.31V473.77H120.8V393.31C120.8 377.84 132.95 365.23 148.23 364.47V242.3H145.76C65.3201 242.3 0.120117 307.51 0.120117 387.94V902.7C0.120117 983.14 65.3301 1048.35 145.77 1048.35H632.23C712.67 1048.35 777.88 983.13 777.88 902.7V387.94C777.88 307.51 712.67 242.3 632.24 242.3ZM657.2 902.69C657.2 916.48 646.03 927.65 632.24 927.65H145.77C131.98 927.65 120.81 916.48 120.81 902.69V561.71H657.21V902.69H657.2Z" fill="#232323"/>
<path d="M557.81 405.69H562.09C580.54 405.69 595.5 390.73 595.5 372.28V233.06C595.5 232.87 595.5 232.68 595.5 232.49C595.2 214.3 580.36 199.66 562.1 199.66H557.82C539.56 199.66 524.72 214.3 524.42 232.49C524.42 232.68 524.42 232.87 524.42 233.06V372.28C524.42 390.73 539.38 405.69 557.83 405.69H557.81Z" fill="#232323"/>
<path d="M490.79 242.3H287.21V364.43H490.79V242.3Z" fill="#232323"/>
<path d="M215.91 405.69H220.19C238.64 405.69 253.6 390.73 253.6 372.28V233.06C253.6 232.87 253.6 232.68 253.6 232.49C253.3 214.3 238.461 199.66 220.201 199.66H215.92C197.66 199.66 182.821 214.3 182.521 232.49C182.521 232.68 182.521 232.87 182.521 233.06V372.28C182.521 390.73 197.48 405.69 215.93 405.69H215.91Z" fill="#232323"/>
<path d="M1015.88 120.04V145.01C1015.74 145.04 1015.51 145.06 1015.19 145.06H926.99C926.8 145.06 926.64 145.06 926.51 145.04V120.03H945.051C949.851 120.03 952.041 116.73 952.041 113.66V44.35C952.041 41.11 950.64 39.33 949.47 38.4C948.3 37.47 946.221 36.51 943.021 37.26L926.431 40.99C926.431 40.99 926.35 41.01 926.32 41.02C926.31 40.9 926.311 40.76 926.311 40.61V23.18C926.311 22.51 926.361 22.1 926.401 21.89C926.571 21.75 926.921 21.5 927.551 21.19L947.51 11.21L964.911 2.50998C967.361 1.27998 968.81 0.749979 969.59 0.509979C970.54 0.229979 971.781 0.0799561 973.271 0.0799561H990.151V113.04C990.151 117.16 992.941 120.03 996.931 120.03H1015.61C1015.71 120.03 1015.8 120.03 1015.88 120.04Z" fill="white"/>
</g>
<defs>
<clipPath id="clip0_1_97">
<rect width="1016" height="1049" fill="white"/>
</clipPath>
</defs>
</svg>
