<?xml version="1.0" encoding="UTF-8"?>
<svg id="Livello_1" data-name="Livello 1" xmlns="http://www.w3.org/2000/svg" viewBox="0 0 2000 2000">
  <defs>
    <style>
      .cls-1 {
        fill: #fff;
      }

      .cls-2 {
        fill: #232323;
      }
    </style>
  </defs>
  <g>
    <path class="cls-2" d="M1243.24,618.3h-2.47v122.17c15.28.75,27.43,13.37,27.43,28.84v80.46h-536.4v-80.46c0-15.47,12.15-28.08,27.43-28.84v-122.17h-2.47c-80.44,0-145.64,65.21-145.64,145.64v514.76c0,80.44,65.21,145.65,145.65,145.65h486.46c80.44,0,145.65-65.22,145.65-145.65v-514.76c0-80.43-65.21-145.64-145.64-145.64ZM1268.2,1278.69c0,13.79-11.17,24.96-24.96,24.96h-486.47c-13.79,0-24.96-11.17-24.96-24.96v-340.98h536.4v340.98Z"/>
    <path class="cls-2" d="M1168.81,781.69h4.28c18.45,0,33.41-14.96,33.41-33.41v-139.22c0-.19,0-.38,0-.57-.3-18.19-15.14-32.83-33.4-32.83h-4.28c-18.26,0-33.1,14.64-33.4,32.83,0,.19,0,.38,0,.57v139.22c0,18.45,14.96,33.41,33.41,33.41Z"/>
    <rect class="cls-2" x="898.21" y="618.3" width="203.58" height="122.13"/>
    <path class="cls-2" d="M826.91,781.69h4.28c18.45,0,33.41-14.96,33.41-33.41v-139.22c0-.19,0-.38,0-.57-.3-18.19-15.14-32.83-33.4-32.83h-4.28c-18.26,0-33.1,14.64-33.4,32.83,0,.19,0,.38,0,.57v139.22c0,18.45,14.96,33.41,33.41,33.41Z"/>
  </g>
  <path class="cls-1" d="M1626.88,496.04v24.97c-.14.03-.37.05-.69.05h-88.2c-.19,0-.35,0-.48-.02v-25.01h18.54c4.8,0,6.99-3.3,6.99-6.37v-69.31c0-3.24-1.4-5.02-2.57-5.95-1.17-.93-3.25-1.89-6.45-1.14l-16.59,3.73s-.08.02-.11.03c-.01-.12-.01-.26-.01-.41v-17.43c0-.67.05-1.08.09-1.29.17-.14.52-.39,1.15-.7l19.96-9.98,17.4-8.7c2.45-1.23,3.9-1.76,4.68-2,.95-.28,2.19-.43,3.68-.43h16.88v112.96c0,4.12,2.79,6.99,6.78,6.99h18.68c.1,0,.19,0,.27.01Z"/>
</svg>