<?xml version="1.0" encoding="UTF-8"?>
<svg id="Livello_1" data-name="Livello 1" xmlns="http://www.w3.org/2000/svg" viewBox="0 0 2000 2000">
  <defs>
    <style>
      .cls-1 {
        fill: #232323;
      }

      .cls-2 {
        fill: #f39200;
      }
    </style>
  </defs>
  <g>
    <path class="cls-1" d="M1378.81,1110.04c-32.82,0-64.75-9.27-92.32-26.8-6.4-4.06-12.51-8.55-18.3-13.41v208.87c0,13.79-11.17,24.96-24.96,24.96h-486.47c-13.79,0-24.96-11.17-24.96-24.96v-340.98h474.69c0-6.65.38-13.31,1.13-19.82,2.78-24.3,10.51-47.2,22.97-68.14h-498.79v-80.46c0-15.46,12.15-28.08,27.43-28.83v-122.17h-2.47c-80.44,0-145.64,65.21-145.64,145.63v514.76c0,80.44,65.2,145.65,145.65,145.65h486.45c80.45,0,145.66-65.21,145.66-145.65v-168.95c-3.34.2-6.7.3-10.07.3ZM1243.23,618.3h-2.46v122.17c15.27.75,27.42,13.37,27.42,28.83v36.31c5.57-4.69,11.43-9.01,17.53-12.93,27.78-17.85,59.97-27.29,93.09-27.29,3.37,0,6.73.1,10.07.29v-1.75c0-80.42-65.21-145.63-145.65-145.63Z"/>
    <path class="cls-1" d="M1168.81,781.69h4.28c18.45,0,33.41-14.96,33.41-33.41v-139.22c0-.19,0-.38,0-.57-.3-18.19-15.14-32.83-33.4-32.83h-4.28c-18.26,0-33.1,14.64-33.4,32.83,0,.19,0,.38,0,.57v139.22c0,18.45,14.96,33.41,33.41,33.41Z"/>
    <rect class="cls-1" x="898.21" y="618.3" width="203.58" height="122.13"/>
    <path class="cls-1" d="M826.91,781.69h4.28c18.45,0,33.41-14.96,33.41-33.41v-139.22c0-.19,0-.38,0-.57-.3-18.19-15.14-32.83-33.4-32.83h-4.28c-18.26,0-33.1,14.64-33.4,32.83,0,.19,0,.38,0,.57v139.22c0,18.45,14.96,33.41,33.41,33.41Z"/>
  </g>
  <path class="cls-2" d="M1388.88,797.75c-3.33-.24-6.68-.36-10.07-.36-27.92,0-53.93,8.16-75.79,22.21-34.54,22.21-58.7,59.15-63.61,101.95-.61,5.3-.92,10.69-.92,16.16h0c0,32.57,11.09,62.53,29.7,86.34,9.87,12.65,21.88,23.55,35.46,32.18,21.72,13.81,47.51,21.81,75.16,21.81,3.39,0,6.75-.12,10.07-.36,12.08-.85,23.73-3.23,34.77-6.95,55.51-18.71,95.49-71.2,95.49-133.02,0-74.11-57.46-134.8-130.26-139.96Z"/>
</svg>