<?xml version="1.0" encoding="UTF-8"?>
<svg id="Livello_1" data-name="Livello 1" xmlns="http://www.w3.org/2000/svg" viewBox="0 0 2000 2000">
  <defs>
    <style>
      .cls-1 {
        fill: #232323;
      }
    </style>
  </defs>
  <path class="cls-1" d="M1423.6,980.83c-24.99,18.5-44.58,37.22-59.89,57.25-20.13,26.31-32.68,54.54-38.37,86.28-6.03,33.63-4.22,70.31,5.56,112.12,9.12,39.01,24.81,81.25,47.99,129.13h0c1.02,2.11.16,4.64-1.93,5.7l-59.8,30.19c-2.09,1.05-4.64.24-5.73-1.83h0c-24.76-47.08-49.43-84.79-75.41-115.29-27.85-32.7-56.27-55.94-86.91-71.04-28.92-14.27-59.08-20.93-92.21-20.36-25.21.43-51.91,5.08-81.63,14.2h0c-2,.61-4.14-.3-5.09-2.17l-36.14-71.58c-1.18-2.33-.02-5.16,2.46-6h0c38.41-12.97,69.32-18.49,100.22-17.89,30.73.59,61.76,7.24,100.62,21.58l21.19,7.81c3.65,1.35,7.07-2.48,5.31-5.96l-114.95-236.87c-9.89-20.19-28.07-34.91-49.87-40.38-21.81-5.48-44.78-1.08-63.03,12.05l-135.98,97.82c-34.31,24.68-76.38,36.1-118.45,32.15-41.85-3.93-80.86-22.79-109.93-53.13l-276.78-276.78,69.77-69.77,277.19,277.18.87.9c26.09,27.46,68.96,31.48,99.71,9.36l135.98-97.82c41.89-30.13,94.62-40.22,144.67-27.65,50.05,12.56,91.77,46.34,114.47,92.69l114.42,235.81c1.75,3.48,6.86,3,7.95-.74l6.3-21.69c11.54-39.78,24.61-68.7,42.39-93.78,17.87-25.21,40.66-46.8,73.9-70.01h0c2.14-1.49,5.11-.75,6.28,1.58l36.14,71.58c.94,1.87.4,4.14-1.28,5.38Z"/>
</svg>