<svg width="1132" height="804" viewBox="0 0 1132 804" fill="none" xmlns="http://www.w3.org/2000/svg">
<g clip-path="url(#clip0_1_41)">
<path d="M1129.6 382.83C1104.61 401.33 1085.02 420.05 1069.71 440.08C1049.58 466.39 1037.03 494.62 1031.34 526.36C1025.31 559.99 1027.12 596.67 1036.9 638.48C1046.02 677.49 1061.71 719.73 1084.89 767.61C1085.91 769.72 1085.05 772.25 1082.96 773.31L1023.16 803.5C1021.07 804.55 1018.52 803.74 1017.43 801.67C992.67 754.59 968 716.88 942.02 686.38C914.17 653.68 885.75 630.44 855.11 615.34C826.19 601.07 796.03 594.41 762.9 594.98C737.69 595.41 710.99 600.06 681.27 609.18C679.27 609.79 677.13 608.88 676.18 607.01L640.04 535.43C638.86 533.1 640.02 530.27 642.5 529.43C680.91 516.46 711.82 510.94 742.72 511.54C773.45 512.13 804.48 518.78 843.34 533.12L864.53 540.93C868.18 542.28 871.6 538.45 869.84 534.97L754.89 298.1C745 277.91 726.82 263.19 705.02 257.72C683.21 252.24 660.24 256.64 641.99 269.77L506.01 367.59C471.7 392.27 429.63 403.69 387.56 399.74C345.71 395.81 306.7 376.95 277.63 346.61L0.849976 69.8301L70.62 0.0600586L347.81 277.24L348.68 278.14C374.77 305.6 417.64 309.62 448.39 287.5L584.37 189.68C626.26 159.55 678.99 149.46 729.04 162.03C779.09 174.59 820.81 208.37 843.51 254.72L957.93 490.53C959.68 494.01 964.79 493.53 965.88 489.79L972.18 468.1C983.72 428.32 996.79 399.4 1014.57 374.32C1032.44 349.11 1055.23 327.52 1088.47 304.31C1090.61 302.82 1093.58 303.56 1094.75 305.89L1130.89 377.47C1131.83 379.34 1131.29 381.61 1129.61 382.85L1129.6 382.83Z" fill="#232323"/>
</g>
<defs>
<clipPath id="clip0_1_41">
<rect width="1132" height="804" fill="white"/>
</clipPath>
</defs>
</svg>
