<svg width="1132" height="804" viewBox="0 0 1132 804" fill="none" xmlns="http://www.w3.org/2000/svg">
<g clip-path="url(#clip0_1_43)">
<path d="M1129.51 421.17C1104.52 402.67 1084.93 383.95 1069.62 363.92C1049.49 337.61 1036.94 309.38 1031.25 277.64C1025.22 244.01 1027.03 207.33 1036.81 165.52C1045.93 126.51 1061.62 84.2701 1084.8 36.3901C1085.82 34.2801 1084.96 31.7501 1082.87 30.6901L1023.07 0.500076C1020.98 -0.549924 1018.43 0.260093 1017.34 2.33009C992.58 49.4101 967.91 87.1201 941.93 117.62C914.08 150.32 885.66 173.56 855.02 188.66C826.1 202.93 795.94 209.59 762.81 209.02C737.6 208.59 710.9 203.94 681.18 194.82C679.18 194.21 677.04 195.12 676.09 196.99L639.95 268.57C638.77 270.9 639.93 273.73 642.41 274.57C680.82 287.54 711.73 293.06 742.63 292.46C773.36 291.87 804.39 285.22 843.25 270.88L864.44 263.07C868.09 261.72 871.51 265.55 869.75 269.03L754.8 505.9C744.91 526.09 726.73 540.81 704.93 546.28C683.12 551.76 660.15 547.36 641.9 534.23L505.92 436.41C471.61 411.73 429.54 400.31 387.47 404.26C345.62 408.19 306.61 427.05 277.54 457.39L0.76001 734.17L70.53 803.94L347.72 526.76L348.59 525.86C374.68 498.4 417.55 494.38 448.3 516.5L584.28 614.32C626.17 644.45 678.9 654.54 728.95 641.97C779 629.41 820.72 595.63 843.42 549.28L957.84 313.47C959.59 309.99 964.7 310.47 965.79 314.21L972.09 335.9C983.63 375.68 996.7 404.6 1014.48 429.68C1032.35 454.89 1055.14 476.48 1088.38 499.69C1090.52 501.18 1093.49 500.44 1094.66 498.11L1130.8 426.53C1131.74 424.66 1131.2 422.39 1129.52 421.15L1129.51 421.17Z" fill="#232323"/>
</g>
<defs>
<clipPath id="clip0_1_43">
<rect width="1132" height="804" fill="white"/>
</clipPath>
</defs>
</svg>
