<svg width="1146" height="1018" viewBox="0 0 1146 1018" fill="none" xmlns="http://www.w3.org/2000/svg">
<g clip-path="url(#clip0_1_45)">
<path d="M1139.99 539.94C1147.94 460.16 1147.94 379.31 1139.96 299.65C1124.53 145.2 1001.25 21.9399 846.849 6.50986C807.93 2.60986 768.719 0.679844 729.479 0.589844H416.52C377.3 0.679844 338.09 2.59985 299.17 6.49985C144.76 21.9398 21.4695 145.23 6.00954 299.65C-1.94046 379.43 -1.94046 460.28 6.03954 539.94C21.4695 694.39 144.75 817.65 299.15 833.08C338.07 836.98 377.28 838.91 416.52 839H553.82C566.41 839 576.62 828.79 576.62 816.2V683.86C576.62 671.27 566.41 661.06 553.82 661.06H416.52C383.22 660.97 349.93 659.33 316.87 656.01C281.64 652.48 249.969 636.66 226.219 612.91C202.46 589.15 186.62 557.46 183.11 522.21C176.3 454.27 176.3 385.34 183.09 317.33C190.14 246.87 246.41 190.62 316.87 183.55C349.94 180.25 383.23 178.62 416.52 178.53H729.479C762.779 178.62 796.07 180.26 829.13 183.58C864.359 187.11 896.03 202.93 919.78 226.68C943.54 250.44 959.38 282.13 962.89 317.38C969.7 385.32 969.7 454.25 962.91 522.26C955.86 592.72 899.59 648.97 829.13 656.04C805.39 658.41 781.55 659.92 757.67 660.61C741.97 661.07 729.479 673.94 729.479 689.65V819.49C729.479 831.87 734.87 843.65 744.26 851.73L929.81 1011.64C938.13 1018.81 950.279 1019.34 959.189 1012.91L1042.84 952.61C1054.31 944.34 1056.05 927.94 1046.58 917.45L963.68 825.61C956.29 817.42 957.87 804.57 967.03 798.42L992.29 781.46C1073.36 728.58 1129.88 641.05 1140 539.93L1139.99 539.94Z" fill="#232323"/>
</g>
<defs>
<clipPath id="clip0_1_45">
<rect width="1146" height="1018" fill="white"/>
</clipPath>
</defs>
</svg>
