<?xml version="1.0" encoding="UTF-8"?>
<svg id="Livello_1" data-name="Livello 1" xmlns="http://www.w3.org/2000/svg" viewBox="0 0 2000 2000">
  <defs>
    <style>
      .cls-1 {
        fill: #232323;
      }
    </style>
  </defs>
  <path class="cls-1" d="M1566.99,1030.94c7.95-79.78,7.95-160.63-.03-240.29-15.43-154.45-138.71-277.71-293.11-293.14-38.92-3.9-78.13-5.83-117.37-5.92h-312.96c-39.22.09-78.43,2.01-117.35,5.91-154.41,15.44-277.7,138.73-293.16,293.15-7.95,79.78-7.95,160.63.03,240.29,15.43,154.45,138.71,277.71,293.11,293.14,38.92,3.9,78.13,5.83,117.37,5.92h137.3c12.59,0,22.8-10.21,22.8-22.8v-132.34c0-12.59-10.21-22.8-22.8-22.8h-137.3c-33.3-.09-66.59-1.73-99.65-5.05-35.23-3.53-66.9-19.35-90.65-43.1-23.76-23.76-39.6-55.45-43.11-90.7-6.81-67.94-6.81-136.87-.02-204.88,7.05-70.46,63.32-126.71,133.78-133.78,33.07-3.3,66.36-4.93,99.65-5.02h312.96c33.3.09,66.59,1.73,99.65,5.05,35.23,3.53,66.9,19.35,90.65,43.1,23.76,23.76,39.6,55.45,43.11,90.7,6.81,67.94,6.81,136.87.02,204.88-7.05,70.46-63.32,126.71-133.78,133.78-23.74,2.37-47.58,3.88-71.46,4.57-15.7.46-28.19,13.33-28.19,29.04v129.84c0,12.38,5.39,24.16,14.78,32.24l185.55,159.91c8.32,7.17,20.47,7.7,29.38,1.27l83.65-60.3c11.47-8.27,13.21-24.67,3.74-35.16l-82.9-91.84c-7.39-8.19-5.81-21.04,3.35-27.19l25.26-16.96c81.07-52.88,137.59-140.41,147.71-241.53Z"/>
</svg>