<?xml version="1.0" encoding="UTF-8"?>
<svg id="Livello_1" data-name="Livello 1" xmlns="http://www.w3.org/2000/svg" viewBox="0 0 2000 2000">
  <defs>
    <style>
      .cls-1 {
        fill: #232323;
      }
    </style>
  </defs>
  <path class="cls-1" d="M1394.48,956.5c-6.31-3.31-8.42-11.32-4.46-17.24,20.1-30.05,31.83-66.17,31.83-105.04,0-104.25-84.02-188.68-188.26-189.17-104.89-.49-190.08,84.39-190.08,189.17,0,38.86,11.73,74.98,31.83,105.03,3.96,5.92,1.86,13.94-4.46,17.25-34.15,17.88-64.97,41.22-91.31,68.89-.64,1.25,83.4,71.56,83.59,71.37,22.05-22.05,47.7-39.35,76.24-51.42,29.48-12.47,60.87-18.8,93.28-18.8s63.8,6.33,93.28,18.8c28.54,12.07,54.19,29.37,76.24,51.42,22.05,22.05,39.35,47.7,51.42,76.24,12.32,29.11,18.63,60.08,18.79,92.05h109.69c-.46-134.08-76.44-250.36-187.62-308.55ZM1288.88,890.42c-15.01,15.01-34.97,23.28-56.2,23.28s-41.19-8.27-56.2-23.28-23.28-34.97-23.28-56.2,8.27-41.19,23.28-56.2c15.01-15.01,34.97-23.28,56.2-23.28s41.19,8.27,56.2,23.28c15.01,15.01,23.28,34.97,23.28,56.2s-8.27,41.19-23.28,56.2Z"/>
  <path class="cls-1" d="M1042.69,1120.02c-24.77-27-53.74-50.1-85.86-68.25-3.25-1.84-6.54-3.63-9.86-5.37-6.31-3.3-8.42-11.32-4.46-17.24,20.1-30.05,31.83-66.17,31.83-105.03,0-104.25-84.01-188.68-188.26-189.17h-.91c-104.47,0-189.16,84.69-189.16,189.16,0,38.87,11.72,74.99,31.82,105.04,3.96,5.92,1.86,13.94-4.45,17.24-111.18,58.19-187.16,174.48-187.62,308.56h109.69c.15-31.98,6.47-62.95,18.78-92.06,12.07-28.53,29.37-54.18,51.42-76.23,22.06-22.06,47.71-39.36,76.24-51.43,29.49-12.47,60.87-18.79,93.28-18.79s63.8,6.32,93.29,18.79c8.74,3.7,17.22,7.89,25.4,12.57,18.52,10.55,35.54,23.56,50.83,38.86,15.74,15.73,29.05,33.29,39.77,52.43,4.31,7.69,8.2,15.63,11.66,23.8,12.31,29.11,18.62,60.08,18.78,92.06h109.69c-.31-90.58-35.09-173.04-91.9-234.94ZM841.37,980.32c-15.01,15.01-34.97,23.28-56.2,23.28s-41.18-8.27-56.2-23.28c-15.01-15.01-23.27-34.97-23.27-56.2s8.26-41.18,23.27-56.19c15.02-15.02,34.97-23.28,56.2-23.28s41.19,8.26,56.2,23.28c15.01,15.01,23.28,34.96,23.28,56.19s-8.27,41.19-23.28,56.2Z"/>
</svg>