<svg width="1148" height="710" viewBox="0 0 1148 710" fill="none" xmlns="http://www.w3.org/2000/svg">
<g clip-path="url(#clip0_1_47)">
<path d="M959.48 311.5C953.17 308.19 951.06 300.18 955.02 294.26C975.12 264.21 986.85 228.09 986.85 189.22C986.85 84.9699 902.83 0.539962 798.59 0.0499625C693.7 -0.440038 608.51 84.4399 608.51 189.22C608.51 228.08 620.24 264.2 640.34 294.25C644.3 300.17 642.2 308.19 635.88 311.5C601.73 329.38 570.91 352.72 544.57 380.39C543.93 381.64 627.97 451.95 628.16 451.76C650.21 429.71 675.86 412.41 704.4 400.34C733.88 387.87 765.27 381.54 797.68 381.54C830.09 381.54 861.48 387.87 890.96 400.34C919.5 412.41 945.15 429.71 967.2 451.76C989.25 473.81 1006.55 499.46 1018.62 528C1030.94 557.11 1037.25 588.08 1037.41 620.05H1147.1C1146.64 485.97 1070.66 369.69 959.48 311.5ZM853.88 245.42C838.87 260.43 818.91 268.7 797.68 268.7C776.45 268.7 756.49 260.43 741.48 245.42C726.47 230.41 718.2 210.45 718.2 189.22C718.2 167.99 726.47 148.03 741.48 133.02C756.49 118.01 776.45 109.74 797.68 109.74C818.91 109.74 838.87 118.01 853.88 133.02C868.89 148.03 877.16 167.99 877.16 189.22C877.16 210.45 868.89 230.41 853.88 245.42Z" fill="#232323"/>
<path d="M607.69 475.02C582.92 448.02 553.95 424.92 521.83 406.77C518.58 404.93 515.29 403.14 511.97 401.4C505.66 398.1 503.55 390.08 507.51 384.16C527.61 354.11 539.34 317.99 539.34 279.13C539.34 174.88 455.33 90.45 351.08 89.96H350.17C245.7 89.96 161.01 174.65 161.01 279.12C161.01 317.99 172.73 354.11 192.83 384.16C196.79 390.08 194.69 398.1 188.38 401.4C77.1998 459.59 1.21977 575.88 0.759766 709.96H110.45C110.6 677.98 116.92 647.01 129.23 617.9C141.3 589.37 158.6 563.72 180.65 541.67C202.71 519.61 228.36 502.31 256.89 490.24C286.38 477.77 317.76 471.45 350.17 471.45C382.58 471.45 413.97 477.77 443.46 490.24C452.2 493.94 460.68 498.13 468.86 502.81C487.38 513.36 504.4 526.37 519.69 541.67C535.43 557.4 548.74 574.96 559.46 594.1C563.77 601.79 567.66 609.73 571.12 617.9C583.43 647.01 589.74 677.98 589.9 709.96H699.59C699.28 619.38 664.5 536.92 607.69 475.02ZM406.37 335.32C391.36 350.33 371.4 358.6 350.17 358.6C328.94 358.6 308.99 350.33 293.97 335.32C278.96 320.31 270.7 300.35 270.7 279.12C270.7 257.89 278.96 237.94 293.97 222.93C308.99 207.91 328.94 199.65 350.17 199.65C371.4 199.65 391.36 207.91 406.37 222.93C421.38 237.94 429.65 257.89 429.65 279.12C429.65 300.35 421.38 320.31 406.37 335.32Z" fill="#232323"/>
</g>
<defs>
<clipPath id="clip0_1_47">
<rect width="1148" height="710" fill="white"/>
</clipPath>
</defs>
</svg>
