<svg width="852" height="1020" viewBox="0 0 852 1020" fill="none" xmlns="http://www.w3.org/2000/svg">
<g clip-path="url(#clip0_1_50)">
<path d="M667.14 0.400024H351.07C321.47 0.400024 293.07 12.16 272.14 33.09L33.3599 271.87C12.4299 292.8 0.669922 321.2 0.669922 350.8V835.63C0.669922 937.36 83.1399 1019.83 184.87 1019.83H667.14C768.88 1019.83 851.35 937.36 851.35 835.62V184.6C851.35 82.87 768.88 0.400024 667.15 0.400024H667.14ZM698.71 835.63C698.71 853.06 684.58 867.2 667.14 867.2H184.86C167.43 867.2 153.29 853.07 153.29 835.63V429.27H383.75C413.86 429.27 438.26 404.86 438.26 374.76V153.03H667.13C684.57 153.03 698.71 167.17 698.71 184.61V835.63Z" fill="#232323"/>
</g>
<defs>
<clipPath id="clip0_1_50">
<rect width="852" height="1020" fill="white"/>
</clipPath>
</defs>
</svg>
