<?xml version="1.0" encoding="UTF-8"?>
<svg id="Livello_1" data-name="Livello 1" xmlns="http://www.w3.org/2000/svg" viewBox="0 0 2000 2000">
  <defs>
    <style>
      .cls-1 {
        fill: #232323;
      }
    </style>
  </defs>
  <path class="cls-1" d="M1241.14,478.4h-316.07c-29.6,0-58,11.76-78.93,32.69l-238.78,238.78c-20.93,20.93-32.69,49.33-32.69,78.93v484.83c0,101.73,82.47,184.2,184.2,184.2h482.27c101.74,0,184.21-82.47,184.21-184.21v-651.02c0-101.73-82.47-184.2-184.2-184.2ZM1272.71,1313.63c0,17.43-14.13,31.57-31.57,31.57h-482.28c-17.43,0-31.57-14.13-31.57-31.57v-406.36h230.46c30.11,0,54.51-24.41,54.51-54.51v-221.73h228.87c17.44,0,31.58,14.14,31.58,31.58v651.02Z"/>
</svg>