<svg width="900" height="900" viewBox="0 0 900 900" fill="none" xmlns="http://www.w3.org/2000/svg">
<g clip-path="url(#clip0_14_8)">
<mask id="mask0_14_8" style="mask-type:luminance" maskUnits="userSpaceOnUse" x="0" y="0" width="900" height="900">
<path d="M900 0H0V900H900V0Z" fill="white"/>
</mask>
<g mask="url(#mask0_14_8)">
<path d="M850.78 753.79C854.7 749.55 854.46 742.93 850.18 739.06L763.3 660.55C759.13 656.78 752.76 656.91 748.74 660.82C699.95 708.32 633.74 737.55 560.5 737.55C447.41 737.55 350.6 667.07 311.6 567.4H586.97C596.91 567.4 604.97 559.34 604.97 549.4V470.4C604.97 460.46 596.91 452.4 586.97 452.4H280.55C279.78 442.06 279.39 431.61 279.39 421.05C279.39 410.42 279.78 399.9 280.56 389.5H586.97C596.91 389.5 604.97 381.44 604.97 371.5V292.5C604.97 282.56 596.91 274.5 586.97 274.5H312.36C351.65 175.66 448.06 105.7 560.5 105.7C633.59 105.7 699.69 134.83 748.46 182.16C752.47 186.04 758.79 186.18 762.97 182.46L850.06 104.95C854.42 101.06 854.66 94.34 850.62 90.1C778.94 14.94 678.36 0 560.5 0C376.66 0 219.55 113.58 154.96 274.5H40C30.06 274.5 22 282.56 22 292.5V371.5C22 381.44 30.06 389.5 40 389.5H125.99C125.27 399.92 124.9 410.44 124.9 421.05C124.9 431.59 125.26 442.05 125.98 452.4H40C30.06 452.4 22 460.46 22 470.4V549.4C22 559.34 30.06 567.4 40 567.4H155.34C220.1 727.85 376.97 841.25 560.5 841.25C679.16 841.25 780.21 826.04 850.78 753.79Z" fill="#232323"/>
</g>
</g>
<defs>
<clipPath id="clip0_14_8">
<rect width="900" height="900" fill="white"/>
</clipPath>
</defs>
</svg>
