<svg width="880" height="880" viewBox="0 0 880 880" fill="none" xmlns="http://www.w3.org/2000/svg">
<g clip-path="url(#clip0_1_52)">
<path d="M106.83 403.23H262.12C339.46 403.23 402.16 340.53 402.15 263.19V106.75C402.15 44.22 348.26 -4.65001 285.99 1.10999C115.4 16.91 24.1097 80.63 1.29969 286.39C-5.62031 348.83 44.0097 403.23 106.83 403.23Z" fill="#232323"/>
<path d="M476.77 106.83V262.12C476.77 339.46 539.47 402.16 616.81 402.15H773.25C835.78 402.15 884.65 348.26 878.89 285.99C863.09 115.4 799.37 24.1099 593.609 1.29994C531.169 -5.62006 476.77 44.01 476.77 106.83Z" fill="#232323"/>
<path d="M773.17 476.77H617.88C540.54 476.77 477.84 539.47 477.85 616.81V773.25C477.85 835.78 531.74 884.65 594.01 878.89C764.6 863.09 855.89 799.37 878.7 593.61C885.62 531.17 835.99 476.77 773.17 476.77Z" fill="#232323"/>
<path d="M403.23 773.17V617.88C403.23 540.54 340.53 477.85 263.19 477.85H106.75C44.2201 477.85 -4.64989 531.74 1.11011 594.01C16.9101 764.6 80.6301 855.89 286.39 878.7C348.83 885.62 403.23 835.99 403.23 773.17Z" fill="#232323"/>
</g>
<defs>
<clipPath id="clip0_1_52">
<rect width="880" height="880" fill="white"/>
</clipPath>
</defs>
</svg>
