<?xml version="1.0" encoding="UTF-8"?>
<svg id="Livello_1" data-name="Livello 1" xmlns="http://www.w3.org/2000/svg" viewBox="0 0 2000 2000">
  <defs>
    <style>
      .cls-1 {
        fill: #232323;
      }
    </style>
  </defs>
  <path class="cls-1" d="M666.83,963.23h155.29c77.34,0,140.04-62.7,140.03-140.04v-156.44c0-62.53-53.89-111.4-116.16-105.64-170.59,15.8-261.88,79.52-284.69,285.28-6.92,62.44,42.71,116.84,105.53,116.84Z"/>
  <path class="cls-1" d="M1036.77,666.83v155.29c0,77.34,62.7,140.04,140.04,140.03h156.44c62.53,0,111.4-53.89,105.64-116.16-15.8-170.59-79.52-261.88-285.28-284.69-62.44-6.92-116.84,42.71-116.84,105.53Z"/>
  <path class="cls-1" d="M1333.17,1036.77h-155.29c-77.34,0-140.04,62.7-140.03,140.04v156.44c0,62.53,53.89,111.4,116.16,105.64,170.59-15.8,261.88-79.52,284.69-285.28,6.92-62.44-42.71-116.84-105.53-116.84Z"/>
  <path class="cls-1" d="M963.23,1333.17v-155.29c0-77.34-62.7-140.03-140.04-140.03h-156.44c-62.53,0-111.4,53.89-105.64,116.16,15.8,170.59,79.52,261.88,285.28,284.69,62.44,6.92,116.84-42.71,116.84-105.53Z"/>
</svg>