<svg width="1146" height="920" viewBox="0 0 1146 920" fill="none" xmlns="http://www.w3.org/2000/svg">
<g clip-path="url(#clip0_1_57)">
<path d="M1075.97 169.46C1073.59 172.69 1070.5 175.43 1066.94 177.48C1063.39 179.54 1059.37 180.95 1055.13 181.56C735.21 227.37 410.78 227.37 90.8601 181.56C82.3801 180.35 74.7901 175.93 70.0201 169.45C65.9301 163.89 64.2601 157.28 65.3101 150.79L85.6701 23.4799C87.8301 10.2199 99.7601 0.65991 113.24 0.65991C114.57 0.65991 115.93 0.749949 117.3 0.949949C268.51 22.5999 420.72 33.4299 572.99 33.4199C725.23 33.4199 877.51 22.5999 1028.68 0.949949C1043.74 -1.21005 1057.94 8.89994 1060.3 23.4399L1080.67 150.84C1081.72 157.29 1080.04 163.9 1075.96 169.47L1075.97 169.46Z" fill="#232323"/>
<path d="M1107.01 531.91C1104.65 535.12 1101.59 537.81 1098.09 539.87C1094.58 541.91 1090.6 543.3 1086.42 543.91C745.74 592.97 400.25 592.97 59.5699 543.91C51.1999 542.71 43.6999 538.33 38.9799 531.92C34.8799 526.34 33.2099 519.69 34.2699 513.16L53.6299 392.16C55.7799 378.9 67.6899 369.35 81.1599 369.35C82.5099 369.35 83.8699 369.45 85.2399 369.65C247.09 392.96 410.01 404.62 573 404.61C735.95 404.61 898.95 392.95 1060.75 369.65C1075.81 367.48 1090.01 377.58 1092.37 392.13L1111.73 513.2C1112.79 519.69 1111.11 526.34 1107.02 531.92L1107.01 531.91Z" fill="#232323"/>
<path d="M1140.92 867.97C1138.58 871.16 1135.54 873.85 1132.06 875.89C1128.58 877.92 1124.64 879.32 1120.49 879.92C757.21 932.53 388.8 932.52 25.5203 879.92C17.2203 878.72 9.77033 874.36 5.08033 867.98C0.970335 862.39 -0.699657 855.73 0.370343 849.18L19.7204 728.18C21.8703 714.92 33.7703 705.38 47.2203 705.38C48.5803 705.38 49.9404 705.48 51.3204 705.68C224.42 730.75 398.69 743.27 573.01 743.27C747.29 743.26 921.63 730.73 1094.69 705.68C1109.75 703.5 1123.94 713.6 1126.29 728.14L1145.66 849.21C1146.72 855.73 1145.03 862.4 1140.94 867.98L1140.92 867.97Z" fill="#232323"/>
</g>
<defs>
<clipPath id="clip0_1_57">
<rect width="1146" height="920" fill="white"/>
</clipPath>
</defs>
</svg>
