<?xml version="1.0" encoding="UTF-8"?>
<svg id="Livello_1" data-name="Livello 1" xmlns="http://www.w3.org/2000/svg" viewBox="0 0 2000 2000">
  <defs>
    <style>
      .cls-1 {
        fill: #232323;
      }
    </style>
  </defs>
  <path class="cls-1" d="M1502.97,709.46c-2.38,3.23-5.47,5.97-9.03,8.02-3.55,2.06-7.57,3.47-11.81,4.08-319.92,45.81-644.35,45.81-964.27,0-8.48-1.21-16.07-5.63-20.84-12.11-4.09-5.56-5.76-12.17-4.71-18.66l20.36-127.31c2.16-13.26,14.09-22.82,27.57-22.82,1.33,0,2.69.09,4.06.29,151.21,21.65,303.42,32.48,455.69,32.47,152.24,0,304.52-10.82,455.69-32.47,15.06-2.16,29.26,7.95,31.62,22.49l20.37,127.4c1.05,6.45-.63,13.06-4.71,18.63Z"/>
  <path class="cls-1" d="M1534.01,1071.91c-2.36,3.21-5.42,5.9-8.92,7.96-3.51,2.04-7.49,3.43-11.67,4.04-340.68,49.06-686.17,49.06-1026.85,0-8.37-1.2-15.87-5.58-20.59-11.99-4.1-5.58-5.77-12.23-4.71-18.76l19.36-121c2.15-13.26,14.06-22.81,27.53-22.81,1.35,0,2.71.1,4.08.3,161.85,23.31,324.77,34.97,487.76,34.96,162.95,0,325.95-11.66,487.75-34.96,15.06-2.17,29.26,7.93,31.62,22.48l19.36,121.07c1.06,6.49-.62,13.14-4.71,18.72Z"/>
  <path class="cls-1" d="M1567.92,1407.97c-2.34,3.19-5.38,5.88-8.86,7.92-3.48,2.03-7.42,3.43-11.57,4.03-363.28,52.61-731.69,52.6-1094.97,0-8.3-1.2-15.75-5.56-20.44-11.94-4.11-5.59-5.78-12.25-4.71-18.8l19.35-121c2.15-13.26,14.05-22.8,27.5-22.8,1.36,0,2.72.1,4.1.3,173.1,25.07,347.37,37.59,521.69,37.59,174.28-.01,348.62-12.54,521.68-37.59,15.06-2.18,29.25,7.92,31.6,22.46l19.37,121.07c1.06,6.52-.63,13.19-4.72,18.77Z"/>
</svg>