<?xml version="1.0" encoding="UTF-8"?>
<svg id="Livello_1" data-name="Livello 1" xmlns="http://www.w3.org/2000/svg" viewBox="0 0 2000 2000">
  <defs>
    <style>
      .cls-1 {
        fill: #232323;
      }
    </style>
  </defs>
  <path class="cls-1" d="M1257.74,973.07c32.98-49.31,52.23-108.59,52.23-172.36,0-171.07-137.87-309.62-308.93-310.42-172.12-.81-311.91,138.48-311.91,310.42,0,63.77,19.24,123.05,52.22,172.36,6.5,9.72,3.05,22.88-7.31,28.3-182.45,95.49-307.13,286.31-307.89,506.34h180c.26-52.47,10.62-103.29,30.83-151.06,19.81-46.83,48.2-88.92,84.38-125.1,36.19-36.19,78.28-64.58,125.1-84.38,48.39-20.47,99.89-30.84,153.08-30.84s104.69,10.38,153.08,30.84c46.82,19.81,88.92,48.2,125.1,84.38,36.19,36.19,64.58,78.28,84.38,125.1,20.21,47.77,30.57,98.59,30.83,151.06h180c-.76-220.02-125.44-410.85-307.88-506.34-10.36-5.42-13.81-18.58-7.31-28.29ZM907.33,708.48c24.63-24.63,57.39-38.2,92.22-38.2s67.59,13.57,92.22,38.2c24.63,24.63,38.2,57.39,38.2,92.22s-13.57,67.59-38.2,92.22c-24.63,24.63-57.39,38.2-92.22,38.2s-67.59-13.57-92.22-38.2c-24.63-24.63-38.2-57.39-38.2-92.22s13.57-67.59,38.2-92.22Z"/>
</svg>