<svg width="926" height="926" viewBox="0 0 926 926" fill="none" xmlns="http://www.w3.org/2000/svg">
<g clip-path="url(#clip0_1_63)">
<path d="M198.07 60.61C147.81 101.76 101.48 148.08 60.4202 198.29C-19.2398 295.62 -19.2198 436.87 60.4002 534.16C101.46 584.35 147.78 630.69 198.08 671.86C295.39 751.48 436.66 751.48 534 671.86C534.03 671.84 534.06 671.81 534.09 671.79C539.01 667.75 546.17 668.02 550.68 672.52L791.13 912.97C807.87 929.71 835.01 929.71 851.74 912.97L912.76 851.95C929.5 835.21 929.5 808.07 912.76 791.34L672.3 550.88C667.8 546.38 667.53 539.22 671.57 534.3C671.6 534.26 671.64 534.22 671.67 534.18C710.2 487.07 731.4 427.44 731.4 366.25C731.4 305.06 710.19 245.41 671.65 198.3C630.52 148.04 584.2 101.71 533.97 60.62C436.66 -19 295.39 -19 198.07 60.62V60.61ZM560.07 442.87H560.05C525.04 485.67 485.55 525.18 442.7 560.26C398.28 596.6 333.79 596.6 289.39 560.28C246.52 525.2 207.02 485.71 172 442.87C153.84 420.66 144.76 393.45 144.76 366.24C144.76 339.03 153.84 311.79 172.02 289.58C207.04 246.76 246.54 207.27 289.39 172.19C333.79 135.86 398.26 135.86 442.68 172.19C485.53 207.27 525.03 246.76 560.07 289.61C596.41 333.98 596.45 398.43 560.07 442.87Z" fill="#232323"/>
</g>
<defs>
<clipPath id="clip0_1_63">
<rect width="926" height="926" fill="white"/>
</clipPath>
</defs>
</svg>
