<?xml version="1.0" encoding="UTF-8"?>
<svg id="Livello_1" data-name="Livello 1" xmlns="http://www.w3.org/2000/svg" viewBox="0 0 2000 2000">
  <defs>
    <style>
      .cls-1 {
        fill: #232323;
      }
    </style>
  </defs>
  <path class="cls-1" d="M735.07,584.61c-50.26,41.15-96.59,87.47-137.65,137.68-79.66,97.33-79.64,238.58-.02,335.87,41.06,50.19,87.38,96.53,137.68,137.7,97.31,79.62,238.58,79.62,335.92,0,.03-.02.06-.05.09-.07,4.92-4.04,12.08-3.77,16.59.73l240.45,240.45c16.74,16.74,43.88,16.74,60.61,0l61.02-61.02c16.74-16.74,16.74-43.88,0-60.61l-240.46-240.46c-4.5-4.5-4.77-11.66-.73-16.58.03-.04.07-.08.1-.12,38.53-47.11,59.73-106.74,59.73-167.93s-21.21-120.84-59.75-167.95c-41.13-50.26-87.45-96.59-137.68-137.68-97.31-79.62-238.58-79.62-335.9,0ZM1097.07,966.87h-.02c-35.01,42.8-74.5,82.31-117.35,117.39-44.42,36.34-108.91,36.34-153.31.02-42.87-35.08-82.37-74.57-117.39-117.41-18.16-22.21-27.24-49.42-27.24-76.63s9.08-54.45,27.26-76.66c35.02-42.82,74.52-82.31,117.37-117.39,44.4-36.33,108.87-36.33,153.29,0,42.85,35.08,82.35,74.57,117.39,117.42,36.34,44.37,36.38,108.82,0,153.26Z"/>
</svg>