<?xml version="1.0" encoding="UTF-8"?>
<svg id="Livello_1" data-name="Livello 1" xmlns="http://www.w3.org/2000/svg" viewBox="0 0 2000 2000">
  <defs>
    <style>
      .cls-1 {
        fill: #232323;
      }
    </style>
  </defs>
  <path class="cls-1" d="M1316.89,591.87c23.75,0,47.08,9.28,64.52,26.72,25.83,25.83,33.76,64.57,20.15,98.47l-269.8,672.23c-5.12,12.76-16.42,18.83-27.69,18.83-13.37,0-26.7-8.54-29.65-24.57,0,0-40.27-131.25-40.27-218.69s225.23-316.4,278.75-405.35c23-38.22-7.58-80.65-45.14-80.64-8.98,0-18.36,2.43-27.5,7.92-89.24,53.57-302.09,278.96-405.68,278.96s-218.14-40.16-218.14-40.16c-29.56-5.44-33.64-46.15-5.74-57.35l672.23-269.8c11.01-4.42,22.53-6.57,33.95-6.57M1316.9,491.87h0c-24.49,0-48.45,4.63-71.2,13.76l-672.24,269.8c-13.91,5.58-26.59,13.36-37.7,23.11-10.95,9.61-20.11,20.91-27.25,33.6-13.15,23.39-18.68,49.98-15.98,76.89,2.69,26.91,13.38,51.87,30.91,72.19,9.51,11.02,20.73,20.28,33.37,27.53,10.07,5.78,20.85,10.16,32.15,13.1,11.39,3.79,38.45,12.38,74.25,21.02,62.87,15.18,120.53,22.88,171.38,22.88,47.5,0,98.74-19.11,163.64-61.45-44.74,67.08-64.07,115.88-64.07,160.57s7.63,99.16,22.68,164.56c8.78,38.14,17.58,68.68,20.76,79.38,6.97,28.82,23.37,54.28,46.72,72.27,22.65,17.45,50.97,27.05,79.76,27.05,53.31,0,100.61-32.03,120.5-81.59l269.8-672.23c28.56-71.17,11.98-152.2-42.25-206.43-18.02-18.02-39.11-32.06-62.69-41.72-23.13-9.48-47.54-14.29-72.54-14.29h0Z"/>
</svg>