<svg width="1018" height="1018" viewBox="0 0 1018 1018" fill="none" xmlns="http://www.w3.org/2000/svg">
<g clip-path="url(#clip0_1_65)">
<path d="M825.89 100.87C849.64 100.87 872.97 110.15 890.41 127.59C916.24 153.42 924.17 192.16 910.56 226.06L640.76 898.29C635.64 911.05 624.34 917.12 613.07 917.12C599.7 917.12 586.37 908.58 583.42 892.55C583.42 892.55 543.15 761.3 543.15 673.86C543.15 586.42 768.38 357.46 821.9 268.51C844.9 230.29 814.32 187.86 776.76 187.87C767.78 187.87 758.4 190.3 749.26 195.79C660.02 249.36 447.17 474.75 343.58 474.75C239.99 474.75 125.44 434.59 125.44 434.59C95.8801 429.15 91.8001 388.44 119.7 377.24L791.93 107.44C802.94 103.02 814.46 100.87 825.88 100.87M825.9 0.869995C801.41 0.869995 777.45 5.5 754.7 14.63L82.4601 284.43C68.5501 290.01 55.8701 297.79 44.7601 307.54C33.8101 317.15 24.6501 328.45 17.5101 341.14C4.3601 364.53 -1.16991 391.12 1.53009 418.03C4.22009 444.94 14.9101 469.9 32.4401 490.22C41.9501 501.24 53.1701 510.5 65.8101 517.75C75.8801 523.53 86.6601 527.91 97.9601 530.85C109.35 534.64 136.41 543.23 172.21 551.87C235.08 567.05 292.74 574.75 343.59 574.75C391.09 574.75 442.33 555.64 507.23 513.3C462.49 580.38 443.16 629.18 443.16 673.87C443.16 718.56 450.79 773.03 465.84 838.43C474.62 876.57 483.42 907.11 486.6 917.81C493.57 946.63 509.97 972.09 533.32 990.08C555.97 1007.53 584.29 1017.13 613.08 1017.13C666.39 1017.13 713.69 985.1 733.58 935.54L1003.38 263.31C1031.94 192.14 1015.36 111.11 961.13 56.88C943.11 38.86 922.02 24.82 898.44 15.16C875.31 5.68 850.9 0.869995 825.9 0.869995Z" fill="#232323"/>
</g>
<defs>
<clipPath id="clip0_1_65">
<rect width="1018" height="1018" fill="white"/>
</clipPath>
</defs>
</svg>
