<?xml version="1.0" encoding="UTF-8"?>
<svg id="Livello_1" data-name="Livello 1" xmlns="http://www.w3.org/2000/svg" viewBox="0 0 2000 2000">
  <defs>
    <style>
      .cls-1 {
        fill: #232323;
      }
    </style>
  </defs>
  <path class="cls-1" d="M1404.34,1017.7c-49.35-8.45-91.1-21.15-127.65-38.83-48.03-23.22-86.55-54.67-117.76-96.17-33.07-43.95-57.07-97.99-73.37-165.19-15.21-62.69-23.29-134.79-24.72-220.44h0c-.06-3.77-3.14-6.79-6.9-6.79h-107.87c-3.77,0-6.84,3.02-6.9,6.79h0c-1.43,85.65-9.52,157.75-24.72,220.44-16.29,67.19-40.3,121.22-73.38,165.19-31.22,41.5-69.74,72.96-117.77,96.17-36.54,17.67-78.29,30.37-127.63,38.83h0c-3.32.57-5.74,3.44-5.74,6.81v129.11c0,4.2,3.72,7.43,7.88,6.84h0c64.63-9.24,113.06-23.73,157.04-47.01,43.74-23.15,83.52-55.23,128.98-104.04l24.79-26.61c4.27-4.59,11.96-1.56,11.96,4.71v515.29c0,3.81,3.09,6.9,6.9,6.9h145.06c3.81,0,6.9-3.09,6.9-6.9v-515.29c0-6.27,7.68-9.29,11.96-4.71l24.79,26.61c45.45,48.8,85.23,80.89,128.98,104.04,43.98,23.27,92.41,37.77,157.04,47.01h0c4.16.59,7.88-2.63,7.88-6.84v-129.11c0-3.36-2.42-6.24-5.74-6.81h0Z"/>
</svg>