<svg width="821" height="1020" viewBox="0 0 821 1020" fill="none" xmlns="http://www.w3.org/2000/svg">
<g clip-path="url(#clip0_1_72)">
<path d="M814.41 527.7C765.06 519.25 723.31 506.55 686.76 488.87C638.73 465.65 600.21 434.2 569 392.7C535.93 348.75 511.93 294.71 495.63 227.51C480.42 164.82 472.34 92.72 470.91 7.07004C470.85 3.30004 467.77 0.280029 464.01 0.280029H356.14C352.37 0.280029 349.3 3.30004 349.24 7.07004C347.81 92.72 339.72 164.82 324.52 227.51C308.23 294.7 284.22 348.73 251.14 392.7C219.92 434.2 181.4 465.66 133.37 488.87C96.83 506.54 55.08 519.24 5.73999 527.7C2.41999 528.27 0 531.14 0 534.51V663.62C0 667.82 3.72001 671.05 7.88 670.46C72.51 661.22 120.94 646.73 164.92 623.45C208.66 600.3 248.44 568.22 293.9 519.41L318.69 492.8C322.96 488.21 330.65 491.24 330.65 497.51V1012.8C330.65 1016.61 333.74 1019.7 337.55 1019.7H482.61C486.42 1019.7 489.51 1016.61 489.51 1012.8V497.51C489.51 491.24 497.19 488.22 501.47 492.8L526.26 519.41C571.71 568.21 611.49 600.3 655.24 623.45C699.22 646.72 747.65 661.22 812.28 670.46C816.44 671.05 820.16 667.83 820.16 663.62V534.51C820.16 531.15 817.74 528.27 814.42 527.7H814.41Z" fill="#232323"/>
</g>
<defs>
<clipPath id="clip0_1_72">
<rect width="821" height="1020" fill="white"/>
</clipPath>
</defs>
</svg>
