<svg width="1147" height="1018" viewBox="0 0 1147 1018" fill="none" xmlns="http://www.w3.org/2000/svg">
<g clip-path="url(#clip0_1_61)">
<path d="M831.74 483.07C864.72 433.76 883.97 374.48 883.97 310.71C883.97 139.64 746.1 1.09001 575.04 0.290014C402.92 -0.519986 263.13 138.77 263.13 310.71C263.13 374.48 282.37 433.76 315.35 483.07C321.85 492.79 318.4 505.95 308.04 511.37C125.59 606.86 0.909902 797.68 0.149902 1017.71H180.15C180.41 965.24 190.77 914.42 210.98 866.65C230.79 819.82 259.18 777.73 295.36 741.55C331.55 705.36 373.64 676.97 420.46 657.17C468.85 636.7 520.35 626.33 573.54 626.33C626.73 626.33 678.23 636.71 726.62 657.17C773.44 676.98 815.54 705.37 851.72 741.55C887.91 777.74 916.3 819.83 936.1 866.65C956.31 914.42 966.67 965.24 966.93 1017.71H1146.93C1146.17 797.69 1021.49 606.86 839.05 511.37C828.69 505.95 825.24 492.79 831.74 483.08V483.07ZM481.33 218.48C505.96 193.85 538.72 180.28 573.55 180.28C608.38 180.28 641.14 193.85 665.77 218.48C690.4 243.11 703.97 275.87 703.97 310.7C703.97 345.53 690.4 378.29 665.77 402.92C641.14 427.55 608.38 441.12 573.55 441.12C538.72 441.12 505.96 427.55 481.33 402.92C456.7 378.29 443.13 345.53 443.13 310.7C443.13 275.87 456.7 243.11 481.33 218.48Z" fill="#232323"/>
</g>
<defs>
<clipPath id="clip0_1_61">
<rect width="1147" height="1018" fill="white"/>
</clipPath>
</defs>
</svg>
